<svg xmlns="http://www.w3.org/2000/svg" xmlns:xlink="http://www.w3.org/1999/xlink" width="83" height="56" viewBox="0 0 83 56">
    <defs>
        <path id="5r84cfc80a" d="M0 0L83 0 83 56 0 56z" />
    </defs>
    <g fill="none" fill-rule="evenodd">
        <mask id="zse6tz9xzb" fill="#fff">
          <use xlink:href="#5r84cfc80a"/>
        </mask>
        <path class="path" fill="#FFF" d="M58.036 36.828c-1.236 1.13-2.738 1.72-4.488 1.665-1.404-.044-2.645-.519-3.705-1.37-1.59-1.273-2.421-2.913-2.63-4.836-.206-1.879.244-3.615 1.412-5.169 1.074-1.43 2.53-2.349 4.41-2.573 1.753-.205 3.321.268 4.659 1.34 1.54 1.233 2.357 2.823 2.61 4.683.042.314.031.627.06 1.011-.035 1.985-.736 3.792-2.328 5.25m-23.64-.98c-.927 1.253-2.172 2.138-3.785 2.491-1.967.43-3.738 0-5.276-1.203-1.576-1.231-2.391-2.839-2.645-4.718-.043-.315-.032-.628-.057-.983.02-1.74.576-3.351 1.8-4.736 1.062-1.205 2.418-1.978 4.098-2.158 1.912-.202 3.568.37 4.944 1.606 1.4 1.256 2.127 2.815 2.312 4.602.191 1.853-.252 3.564-1.39 5.1m48.043 3.587c-.177-1.52-.399-3.032-.65-4.54-.437-2.623-.981-5.226-1.648-7.806-.985-3.817-2.205-7.569-3.76-11.222-1.266-2.974-2.677-5.88-4.497-8.602-.132-.197-.293-.356-.496-.49-1.052-.694-2.13-1.353-3.247-1.957C64.73 2.972 61.146 1.518 57.295.656 55.939.352 54.567.15 53.182.006c-.255-.026-.411.028-.523.267-.193.419-.424.82-.653 1.222-.092.164-.066.21.13.258 1.698.4 3.38.845 5.026 1.404 1.978.67 3.892 1.466 5.71 2.456 1.607.874 3.115 1.874 4.547 2.977.717.552 1.44 1.097 2.11 1.701-.01.007-.018.016-.027.024-.107-.003-.194-.06-.287-.103-1.182-.542-2.361-1.093-3.549-1.624-2.107-.943-4.256-1.79-6.466-2.497-3.256-1.042-6.591-1.767-10.013-2.163-1.693-.194-3.388-.334-5.089-.388-1.109-.035-2.221-.059-3.334-.037-1.829.032-3.651.107-5.471.27-1.546.138-3.082.336-4.607.605-2.974.527-5.87 1.31-8.694 2.327-2.78 1-5.454 2.21-8.113 3.46-.124.058-.24.14-.388.149l-.025-.023c.487-.4.961-.812 1.46-1.198 1.902-1.468 3.91-2.797 6.08-3.91 1.96-1.005 4.006-1.822 6.134-2.471 1.217-.372 2.45-.686 3.697-.956.241-.052.237-.12.136-.29-.156-.26-.29-.53-.433-.797-.369-.682-.369-.682-1.184-.607L29.3.067c-2.132.258-4.224.696-6.267 1.315C19.1 2.574 15.436 4.266 12.05 6.475c-.506.33-.907.71-1.223 1.204-1.468 2.3-2.689 4.71-3.782 7.18-1.088 2.46-2.028 4.968-2.84 7.518-.933 2.93-1.699 5.902-2.321 8.903-.35 1.688-.653 3.383-.914 5.085-.158 1.036-.3 2.076-.422 3.118-.12 1.022-.234 2.048-.326 3.074-.069.8-.144 1.6-.21 2.402-.025.303-.036.576.235.842.96.941 1.941 1.858 3.01 2.696 2.618 2.061 5.53 3.663 8.697 4.88 2.523.971 5.131 1.673 7.814 2.131 1.483.253 2.973.443 4.482.49.186.006.31-.036.427-.181.915-1.145 1.84-2.285 2.764-3.421.126-.153.147-.225-.088-.3-1.62-.526-3.194-1.157-4.723-1.88-1.927-.912-3.758-1.968-5.49-3.172-1.276-.889-2.484-1.852-3.63-2.878-.657-.589-1.31-1.183-1.867-1.86l.026-.03c.042.019.087.034.124.06.847.586 1.719 1.137 2.608 1.665 2.732 1.624 5.627 2.942 8.676 3.97 3.436 1.158 6.98 1.903 10.601 2.341 1.886.228 3.782.364 5.683.411 2.535.066 5.07.026 7.597-.186 1.715-.144 3.42-.346 5.115-.627 2.796-.465 5.527-1.145 8.189-2.059 3.284-1.129 6.374-2.609 9.278-4.424.6-.376 1.19-.767 1.785-1.15.01.008.018.02.027.03-.03.043-.055.09-.091.129-1.184 1.252-2.482 2.395-3.856 3.467-1.845 1.439-3.827 2.694-5.939 3.771-1.868.956-3.808 1.766-5.823 2.424-.18.057-.253.098-.108.274.945 1.157 1.882 2.32 2.818 3.482.09.113.186.145.331.146.643 0 1.281-.06 1.916-.128 1.814-.196 3.608-.5 5.376-.928 2.532-.614 4.981-1.435 7.323-2.52 2.21-1.023 4.275-2.256 6.178-3.716 1.215-.933 2.35-1.944 3.384-3.05.102-.107.15-.211.137-.352-.041-.434-.079-.871-.107-1.306-.101-1.526-.275-3.045-.45-4.563" mask="url(#zse6tz9xzb)"/>
    </g>
</svg>
