<?xml version="1.0" encoding="utf-8"?>
<!-- Generator: Adobe Illustrator 24.0.0, SVG Export Plug-In . SVG Version: 6.00 Build 0)  -->
<svg version="1.1" id="Layer_1" xmlns="http://www.w3.org/2000/svg" xmlns:xlink="http://www.w3.org/1999/xlink" x="0px" y="0px"
	 viewBox="0 0 147.34 47.33" style="enable-background:new 0 0 147.34 47.33;" xml:space="preserve">
<style type="text/css">
	.st0{fill:#FFFFFF;}
	.st1{fill:url(#SVGID_1_);}
	.st2{fill:url(#SVGID_2_);}
	.st3{fill:url(#SVGID_3_);}
	.st4{fill:url(#SVGID_4_);}
	.st5{fill:url(#SVGID_5_);}
	.st6{fill:url(#SVGID_6_);}
	.st7{fill:#00001D;}
	.st8{fill:url(#SVGID_7_);}
	.st9{fill:url(#SVGID_8_);}
	.st10{fill:url(#SVGID_9_);}
	.st11{fill:url(#SVGID_10_);}
	.st12{fill:url(#SVGID_11_);}
	.st13{fill:url(#SVGID_12_);}
	.st14{fill:url(#SVGID_13_);}
	.st15{fill:url(#SVGID_14_);}
	.st16{fill:url(#SVGID_15_);}
	.st17{fill:url(#SVGID_16_);}
	.st18{opacity:0.54;}
	.st19{fill:url(#SVGID_17_);}
	.st20{fill:url(#SVGID_18_);}
	.st21{fill:url(#SVGID_19_);}
	.st22{fill:url(#SVGID_20_);}
	.st23{fill:url(#SVGID_21_);}
	.st24{fill:url(#SVGID_22_);}
	.st25{fill:url(#SVGID_23_);}
	.st26{fill:url(#SVGID_24_);}
	.st27{fill:url(#SVGID_25_);}
	.st28{fill:url(#SVGID_26_);}
	.st29{fill:url(#SVGID_27_);}
	.st30{fill:url(#SVGID_28_);}
	.st31{fill:url(#SVGID_29_);}
	.st32{fill:url(#SVGID_30_);}
	.st33{fill:#008AAF;}
	.st34{fill:url(#SVGID_31_);}
	.st35{fill:url(#SVGID_32_);}
	.st36{fill:url(#SVGID_33_);}
</style>
<g>
	<g>
		<g>
			<g>
				<g>
					<rect x="59.39" y="9.34" class="st0" width="4.79" height="4.24"/>
					<rect x="59.39" y="17.25" class="st0" width="4.79" height="20.52"/>
				</g>
				<rect x="49.81" y="9.34" class="st0" width="4.79" height="28.43"/>
				<path class="st0" d="M45.7,27.86c0-5.77-3.23-10.78-9.6-10.78c-5.73,0-9.79,4.71-9.79,10.44v0.08c0,6.19,4.48,10.4,10.29,10.4
					c3.68,0,6.3-1.48,8.2-3.76l-2.69-2.39c-1.59,1.56-3.19,2.39-5.43,2.39c-2.96,0-5.28-1.82-5.77-5.09h0
					c-0.15-0.99-0.18-2.01-0.04-3.04h0c0.42-3.11,2.39-5.28,5.2-5.28c3.04,0,4.78,1.97,5.09,4.93H29.63
					c-0.24,1.26-0.22,2.52,0.03,3.74h15.96C45.66,29.05,45.7,28.28,45.7,27.86z"/>
			</g>
			<g>
				<g>
					<rect x="99.43" y="9.34" class="st0" width="4.79" height="4.24"/>
					<rect x="99.43" y="17.25" class="st0" width="4.79" height="20.52"/>
				</g>
				<g>
					<path class="st0" d="M113.81,19.41v-2.16h-4.79v20.52h4.79V26.59c0.43-3,3.61-5.34,7.23-5.34v-4.23
						C118.29,17.02,115.77,17.92,113.81,19.41z"/>
				</g>
			</g>
		</g>
		<g>
			<linearGradient id="SVGID_1_" gradientUnits="userSpaceOnUse" x1="77.8742" y1="0.4491" x2="104.9138" y2="27.4887">
				<stop  offset="0.15" style="stop-color:#00FFE0"/>
				<stop  offset="0.85" style="stop-color:#00CCFF"/>
			</linearGradient>
			<path class="st1" d="M88.28,14.98c0.65,1.42,1,2.98,1,4.61c0,0.05,0.01,0.1,0.01,0.15l5.34-4.75V9.33L88.28,14.98z"/>
			<linearGradient id="SVGID_2_" gradientUnits="userSpaceOnUse" x1="71.0502" y1="7.273" x2="98.0898" y2="34.3127">
				<stop  offset="0.15" style="stop-color:#00FFE0"/>
				<stop  offset="0.85" style="stop-color:#00CCFF"/>
			</linearGradient>
			<path class="st2" d="M83.34,19.36l-2.88,2.55c0.77,1.33,1.27,2.82,1.44,4.39l2.57-2.28c1.82,3.44,5.7,5.82,10.17,5.82v-4.23
				c-3.89,0-7.05-2.7-7.05-6.02c0-5.65-5.05-10.25-11.26-10.26h-0.02v4.23C80.1,13.56,83.2,16.15,83.34,19.36z"/>
			<linearGradient id="SVGID_3_" gradientUnits="userSpaceOnUse" x1="61.1531" y1="17.1702" x2="88.1927" y2="44.2098">
				<stop  offset="0.15" style="stop-color:#00FFE0"/>
				<stop  offset="0.85" style="stop-color:#00CCFF"/>
			</linearGradient>
			<path class="st3" d="M87.32,37.74v-4.23c-3.89,0-7.05-2.7-7.05-6.02c0-5.65-5.06-10.26-11.28-10.26v4.23
				c3.3,0,6.07,1.95,6.83,4.58l-1.49,1.32l-3.08,2.74h0l-2.27,2.01v5.66l7.7-6.84C78.25,34.89,82.43,37.74,87.32,37.74z"/>
		</g>
	</g>
</g>
</svg>
