<svg id="Layer_1" data-name="Layer 1" xmlns="http://www.w3.org/2000/svg" xmlns:xlink="http://www.w3.org/1999/xlink" viewBox="0 0 500 500"><defs><style>.cls-1{fill:#fff;fill-rule:evenodd;}.cls-2{mask:url(#mask);}</style><mask id="mask" x="156.59" y="-2.44" width="316.53" height="362.38" maskUnits="userSpaceOnUse"><g id="mask-2"><polygon id="path-1" class="cls-1" points="156.59 -2.44 473.12 -2.44 473.12 359.94 156.59 359.94 156.59 -2.44"/></g></mask></defs><g id="Symbols"><g id="new_navbar" data-name="new navbar"><g id="header"><g id="Group-8"><path id="Fill-1" class="cls-1" d="M363.32,97.35a199.46,199.46,0,0,1,17.34,81.4c0,.92.14,1.8.18,2.72l92.28-83.86v-100Z"/><g id="Group-5"><g class="cls-2"><path id="Fill-3" class="cls-1" d="M351.42,178.76c0-99.92-87.4-181.2-194.83-181.2V72.35c65.57,0,119.06,45.61,121.49,102.44L228.4,219.93a201.19,201.19,0,0,1,24.8,77.51l44.31-40.27C329,317.91,395.89,359.94,473.12,359.94V285.16c-67.1,0-121.7-47.73-121.7-106.4"/></g></g><path id="Fill-6" class="cls-1" d="M346.76,499.48V424.7C279.66,424.7,225,377,225,318.3c0-99.92-87.4-181.19-194.83-181.19v74.78c57,0,104.88,34.51,118,80.87l-25.69,23.33L69.34,364.43,30.21,400V500l133-120.85c26.94,70.05,99,120.33,183.5,120.33"/></g></g></g></g></svg>