<svg id="Layer_1" data-name="Layer 1" xmlns="http://www.w3.org/2000/svg" viewBox="0 0 500 500">
<defs>
  <style>.cls-1{fill:#FFF;}</style>
</defs><path class="cls-1 path" d="M495.86,277.65,469.77,197.5a11.52,11.52,0,0,0-.64-2.17L416.81,34.23a20.88,20.88,0,0,0-19.88-14.18A20.43,20.43,0,0,0,377.3,34.37l-49.88,153.5H170L120,34.35a20.41,20.41,0,0,0-19.54-14.3h-.12a20.84,20.84,0,0,0-19.8,14.32L28.2,195.66c0,.13-.12.27-.17.4L1.48,277.65A29.71,29.71,0,0,0,12.28,311L241.71,477.72a11.73,11.73,0,0,0,13.88-.07h0L485.06,311A29.71,29.71,0,0,0,495.86,277.65Zm-343-66.22,64,196.82L63.35,211.43ZM280.54,408.29l61.33-188.68,2.66-8.18h89.62L295.26,389.37ZM397.14,49.48l44.95,138.39h-90ZM319.8,211.35,275.25,348.46l-26.59,81.65-71-218.76ZM100.26,49.48l45,138.39H55.4ZM26.08,292a6.33,6.33,0,0,1-2.29-7.07l19.72-60.58,144.62,185.4Zm445.18,0L309.2,409.66l.55-.71L453.83,224.33l19.7,60.56a6.33,6.33,0,0,1-2.27,7.09Z"/></svg>
