<?xml version="1.0" encoding="utf-8"?>
<!-- Generator: Adobe Illustrator 24.0.0, SVG Export Plug-In . SVG Version: 6.00 Build 0)  -->
<svg version="1.1" id="Layer_1" xmlns="http://www.w3.org/2000/svg" xmlns:xlink="http://www.w3.org/1999/xlink" x="0px" y="0px"
	 viewBox="0 0 147.34 47.33" style="enable-background:new 0 0 147.34 47.33;" xml:space="preserve">
<style type="text/css">
	.st0{fill:#FFFFFF;}
	.st1{fill:url(#SVGID_1_);}
	.st2{fill:url(#SVGID_2_);}
	.st3{fill:url(#SVGID_3_);}
	.st4{fill:url(#SVGID_4_);}
	.st5{fill:url(#SVGID_5_);}
	.st6{fill:url(#SVGID_6_);}
	.st7{fill:#00001D;}
	.st8{fill:url(#SVGID_7_);}
	.st9{fill:url(#SVGID_8_);}
	.st10{fill:url(#SVGID_9_);}
	.st11{fill:url(#SVGID_10_);}
	.st12{fill:url(#SVGID_11_);}
	.st13{fill:url(#SVGID_12_);}
	.st14{fill:url(#SVGID_13_);}
	.st15{fill:url(#SVGID_14_);}
	.st16{fill:url(#SVGID_15_);}
	.st17{fill:url(#SVGID_16_);}
	.st18{opacity:0.54;}
	.st19{fill:url(#SVGID_17_);}
	.st20{fill:url(#SVGID_18_);}
	.st21{fill:url(#SVGID_19_);}
	.st22{fill:url(#SVGID_20_);}
	.st23{fill:url(#SVGID_21_);}
	.st24{fill:url(#SVGID_22_);}
	.st25{fill:url(#SVGID_23_);}
	.st26{fill:url(#SVGID_24_);}
	.st27{fill:url(#SVGID_25_);}
	.st28{fill:url(#SVGID_26_);}
	.st29{fill:url(#SVGID_27_);}
	.st30{fill:url(#SVGID_28_);}
	.st31{fill:url(#SVGID_29_);}
	.st32{fill:url(#SVGID_30_);}
	.st33{fill:#008AAF;}
	.st34{fill:url(#SVGID_31_);}
	.st35{fill:url(#SVGID_32_);}
	.st36{fill:url(#SVGID_33_);}
</style>
<g>
	<g>
		<g>
			<g>
				<path class="st0" d="M37.79,24.14c0,6.37-4.41,10.51-10.39,10.51c-2.61,0-4.91-0.88-6.56-2.76v9.93h-4.79V13.9h4.56v2.68
					c1.61-1.96,3.99-2.91,6.79-2.91C33.38,13.67,37.79,17.81,37.79,24.14z M32.92,24.14c0-3.91-2.61-6.4-6.06-6.4
					c-3.45,0-6.1,2.49-6.1,6.4s2.65,6.4,6.1,6.4C30.31,30.54,32.92,28.05,32.92,24.14z"/>
				<path class="st0" d="M52.78,13.67v4.56c-0.42-0.08-0.77-0.12-1.11-0.12c-3.64,0-5.94,2.15-5.94,6.33v9.93h-4.79V13.9h4.56v2.99
					C46.87,14.74,49.37,13.67,52.78,13.67z"/>
				<g>
					<path class="st0" d="M71.35,15.83c1.6,1.44,2.4,3.62,2.4,6.54v12.01h-4.53v-2.49c-0.59,0.9-1.43,1.58-2.51,2.05
						c-1.09,0.47-2.4,0.71-3.93,0.71s-2.88-0.26-4.03-0.79c-1.15-0.52-2.04-1.25-2.67-2.19c-0.63-0.93-0.94-1.99-0.94-3.16
						c0-1.84,0.68-3.32,2.05-4.43c1.37-1.11,3.52-1.67,6.46-1.67h5.29V22.1c0-1.43-0.43-2.53-1.28-3.3
						c-0.86-0.77-2.13-1.15-3.82-1.15c-1.15,0-2.28,0.18-3.39,0.54c-1.11,0.36-2.05,0.86-2.82,1.5l-1.88-3.49
						c1.07-0.82,2.36-1.44,3.87-1.88c1.51-0.43,3.11-0.65,4.79-0.65C67.45,13.67,69.76,14.39,71.35,15.83z M66.98,30.33
						c0.93-0.55,1.59-1.34,1.98-2.36v-2.38h-4.95c-2.76,0-4.14,0.91-4.14,2.72c0,0.87,0.35,1.56,1.04,2.07
						c0.69,0.51,1.65,0.77,2.88,0.77C64.98,31.16,66.05,30.88,66.98,30.33z"/>
				</g>
			</g>
			<g>
				<g>
					<rect x="105.31" y="5.69" class="st0" width="4.77" height="4.2"/>
					<g>
						<path class="st0" d="M105.31,14.07h4.79v20.48h-4.79V14.07z"/>
					</g>
				</g>
				<path class="st0" d="M117.14,34.17c-1.59-0.43-2.85-0.98-3.8-1.65l1.84-3.64c0.92,0.61,2.03,1.11,3.32,1.48
					c1.29,0.37,2.56,0.56,3.82,0.56c2.86,0,4.3-0.75,4.3-2.26c0-0.72-0.36-1.21-1.09-1.5c-0.73-0.28-1.9-0.55-3.51-0.81
					c-1.69-0.26-3.06-0.55-4.12-0.88c-1.06-0.33-1.98-0.91-2.76-1.75c-0.78-0.83-1.17-1.99-1.17-3.47c0-1.94,0.81-3.5,2.44-4.66
					c1.62-1.16,3.82-1.75,6.58-1.75c1.41,0,2.81,0.16,4.22,0.48c1.41,0.32,2.56,0.75,3.45,1.28l-1.84,3.64
					c-1.74-1.02-3.7-1.53-5.87-1.53c-1.41,0-2.47,0.21-3.2,0.63c-0.73,0.42-1.09,0.98-1.09,1.67c0,0.77,0.39,1.31,1.17,1.63
					c0.78,0.32,1.99,0.62,3.62,0.9c1.64,0.26,2.98,0.55,4.03,0.88c1.05,0.33,1.95,0.9,2.7,1.69c0.75,0.79,1.13,1.92,1.13,3.38
					c0,1.92-0.83,3.45-2.49,4.6c-1.66,1.15-3.93,1.73-6.79,1.73C120.35,34.82,118.73,34.61,117.14,34.17z"/>
			</g>
		</g>
		<g>
			<linearGradient id="SVGID_1_" gradientUnits="userSpaceOnUse" x1="85.5316" y1="-3.5028" x2="112.9767" y2="23.9423">
				<stop  offset="0.15" style="stop-color:#00CCFF"/>
				<stop  offset="0.85" style="stop-color:#8040FF"/>
			</linearGradient>
			<path class="st1" d="M96.09,11.24c0.66,1.44,1.02,3.02,1.02,4.68c0,0.05,0.01,0.1,0.01,0.16l5.42-4.82V5.51L96.09,11.24z"/>
			<linearGradient id="SVGID_2_" gradientUnits="userSpaceOnUse" x1="78.6054" y1="3.4235" x2="106.0504" y2="30.8685">
				<stop  offset="0.15" style="stop-color:#00CCFF"/>
				<stop  offset="0.85" style="stop-color:#8040FF"/>
			</linearGradient>
			<path class="st2" d="M95.39,15.92c0-5.73-5.13-10.4-11.43-10.41h-0.02v4.3c3.85,0,7,2.62,7.14,5.89l-2.92,2.59
				c0.78,1.35,1.29,2.86,1.46,4.45l2.6-2.31c1.85,3.49,5.78,5.9,10.32,5.9v-4.3C98.6,22.03,95.39,19.29,95.39,15.92z"/>
			<linearGradient id="SVGID_3_" gradientUnits="userSpaceOnUse" x1="68.5598" y1="13.469" x2="96.0049" y2="40.9141">
				<stop  offset="0.15" style="stop-color:#00CCFF"/>
				<stop  offset="0.85" style="stop-color:#8040FF"/>
			</linearGradient>
			<path class="st3" d="M95.12,34.35v-4.3c-3.94,0-7.15-2.74-7.15-6.11c0-5.74-5.14-10.41-11.45-10.41v4.3
				c3.35,0,6.16,1.98,6.93,4.65l-1.51,1.34l-3.13,2.78h0l-2.3,2.04v5.75l7.82-6.94C85.92,31.46,90.15,34.35,95.12,34.35z"/>
		</g>
	</g>
</g>
</svg>
