<svg id="Layer_1" data-name="Layer 1" xmlns="http://www.w3.org/2000/svg" xmlns:xlink="http://www.w3.org/1999/xlink" viewBox="0 0 500 500"><defs><style>.cls-1,.cls-2,.cls-3{fill:#fff;}.cls-1{clip-rule:evenodd;}.cls-3{fill-rule:evenodd;}.cls-4{clip-path:url(#clip-path);}.cls-5{clip-path:url(#clip-path-2);}</style><clipPath id="clip-path"><path class="cls-1" d="M-19.5,95.53a205.91,205.91,0,0,1-58.92,16.09A102.54,102.54,0,0,0-33.31,55.09a206.59,206.59,0,0,1-65.14,24.8,102.62,102.62,0,0,0-74.88-32.27c-56.65,0-102.58,45.74-102.58,102.18a102.28,102.28,0,0,0,2.66,23.29A291.61,291.61,0,0,1-484.69,66.31a101.47,101.47,0,0,0-13.89,51.38,102,102,0,0,0,45.63,85.05A102.35,102.35,0,0,1-499.41,190c0,.44,0,.85,0,1.29a102.33,102.33,0,0,0,82.3,100.19,103,103,0,0,1-27,3.58,103.84,103.84,0,0,1-19.29-1.82,102.61,102.61,0,0,0,95.82,71A206.29,206.29,0,0,1-495,407.9a212.56,212.56,0,0,1-24.47-1.42,291.24,291.24,0,0,0,157.25,45.9c188.69,0,291.86-155.71,291.86-290.73,0-4.44-.09-8.85-.3-13.23A207.58,207.58,0,0,0-19.5,95.53"/></clipPath><clipPath id="clip-path-2"><rect class="cls-2" x="-1162.36" y="-571.43" width="1761.9" height="7309.52"/></clipPath></defs><path class="cls-3" d="M-19.5,95.53a205.91,205.91,0,0,1-58.92,16.09A102.54,102.54,0,0,0-33.31,55.09a206.59,206.59,0,0,1-65.14,24.8,102.62,102.62,0,0,0-74.88-32.27c-56.65,0-102.58,45.74-102.58,102.18a102.28,102.28,0,0,0,2.66,23.29A291.61,291.61,0,0,1-484.69,66.31a101.47,101.47,0,0,0-13.89,51.38,102,102,0,0,0,45.63,85.05A102.35,102.35,0,0,1-499.41,190c0,.44,0,.85,0,1.29a102.33,102.33,0,0,0,82.3,100.19,103,103,0,0,1-27,3.58,103.84,103.84,0,0,1-19.29-1.82,102.61,102.61,0,0,0,95.82,71A206.29,206.29,0,0,1-495,407.9a212.56,212.56,0,0,1-24.47-1.42,291.24,291.24,0,0,0,157.25,45.9c188.69,0,291.86-155.71,291.86-290.73,0-4.44-.09-8.85-.3-13.23A207.58,207.58,0,0,0-19.5,95.53"/><g class="cls-4"><rect class="cls-2" x="-1162.36" y="-571.43" width="1761.9" height="7309.52"/><g class="cls-5"><rect class="cls-2" x="-638.55" y="-71.43" width="738.1" height="642.86"/></g></g><g id="PnkqQ4.tif"><path class="cls-2" d="M500,52.08v12.5a25.55,25.55,0,0,0-2,4.63q-37.59,180.62-75,361.27c-6,28.9-22.84,35.6-46.91,18.17q-49.72-36-99.42-72c-3.31-2.4-6.69-4.69-10.47-7.32-20.45,19.32-40.32,38.14-60.26,56.89-15.23,14.33-28.48,11-35.15-8.84C156.89,376,143,334.6,129.41,293.11c-2-6.29-5.21-9.59-11.53-11.48-33.18-9.92-66.37-19.85-99.23-30.78C11.72,248.55,6.18,242.06,0,237.5V227.08C6,222.8,11.4,217,18.06,214.46q226.47-85,453.2-169.29C486.31,39.55,489.79,40.43,500,52.08ZM188.76,385.38c2.4-21.5,5-40.27,6.36-59.13.6-8.39,4-13.74,10.06-19.15Q304.7,217.87,403.67,128c2.85-2.59,3.39-7.73,5-11.69-4,.5-8.85-.29-11.94,1.67Q278.23,193.14,160,268.72c-5,3.18-6,5.95-4.2,11.73,10.09,32,19.64,64.21,29.42,96.33C185.86,378.91,186.9,380.91,188.76,385.38Z"/></g></svg>