<?xml version="1.0" encoding="utf-8"?>
<!-- Generator: Adobe Illustrator 24.0.0, SVG Export Plug-In . SVG Version: 6.00 Build 0)  -->
<svg version="1.1" id="Layer_1" xmlns="http://www.w3.org/2000/svg" xmlns:xlink="http://www.w3.org/1999/xlink" x="0px" y="0px"
	 viewBox="0 0 375.5 87.77" style="enable-background:new 0 0 375.5 87.77;" xml:space="preserve">
<style type="text/css">
	.st0{fill:#FFFFFF;}
	.st1{fill:url(#SVGID_1_);}
	.st2{fill:url(#SVGID_2_);}
	.st3{fill:url(#SVGID_3_);}
	.st4{fill:url(#SVGID_4_);}
	.st5{fill:url(#SVGID_5_);}
	.st6{fill:url(#SVGID_6_);}
	.st7{fill:#00001D;}
	.st8{fill:url(#SVGID_7_);}
	.st9{fill:url(#SVGID_8_);}
	.st10{fill:url(#SVGID_9_);}
	.st11{fill:url(#SVGID_10_);}
	.st12{fill:url(#SVGID_11_);}
	.st13{fill:url(#SVGID_12_);}
	.st14{fill:url(#SVGID_13_);}
	.st15{fill:url(#SVGID_14_);}
	.st16{fill:url(#SVGID_15_);}
	.st17{fill:url(#SVGID_16_);}
	.st18{opacity:0.54;}
	.st19{fill:url(#SVGID_17_);}
	.st20{fill:url(#SVGID_18_);}
	.st21{fill:url(#SVGID_19_);}
	.st22{fill:url(#SVGID_20_);}
	.st23{fill:url(#SVGID_21_);}
	.st24{fill:url(#SVGID_22_);}
	.st25{fill:url(#SVGID_23_);}
	.st26{fill:url(#SVGID_24_);}
	.st27{fill:url(#SVGID_25_);}
	.st28{fill:url(#SVGID_26_);}
	.st29{fill:url(#SVGID_27_);}
	.st30{fill:url(#SVGID_28_);}
	.st31{fill:url(#SVGID_29_);}
	.st32{fill:url(#SVGID_30_);}
	.st33{fill:#008AAF;}
	.st34{fill:url(#SVGID_31_);}
	.st35{fill:url(#SVGID_32_);}
	.st36{fill:url(#SVGID_33_);}
</style>
<g>
	<g>
		<path class="st0" d="M293.66,59.17V23.74h8.03v4.01l0.23-0.17c3.45-2.62,7.82-4.08,12.31-4.11v7.06
			c-6.29,0.06-11.79,4.17-12.53,9.38l0,19.26H293.66z"/>
		<path class="st0" d="M82.3,53.83c0-3.01,2.23-4.99,4.93-4.99c2.71,0,4.93,1.98,4.93,4.99c0,2.89-2.22,4.99-4.93,4.99
			C84.53,58.82,82.3,56.72,82.3,53.83z"/>
		<path class="st0" d="M168.28,41.82c0-9.94-5.56-18.57-16.54-18.57c-9.87,0-16.87,8.11-16.87,17.98v0.13
			c0,10.66,7.71,17.91,17.72,17.91c6.34,0,10.85-2.55,14.12-6.47l-4.64-4.12c-2.75,2.68-5.49,4.12-9.35,4.12
			c-4.91,0-8.78-2.92-9.82-8.16h25.25C168.21,43.86,168.28,42.54,168.28,41.82z M142.81,38.21c0.89-5.03,4.21-8.48,8.86-8.48
			c5.23,0,8.24,3.38,8.76,8.48H142.81z"/>
		<path class="st0" d="M196.06,56.98c-1.92,1.54-4.81,2.31-7.7,2.31c-7.5,0-11.8-3.98-11.8-11.54V30.18h-6.28v-6.44h6.28l0-8.17
			h8.02l0,8.17h8l0,6.44h-8l0,17.38c0,3.33,1.67,5.13,4.75,5.13c1.67,0,3.27-0.45,4.49-1.41L196.06,56.98z"/>
		<linearGradient id="SVGID_1_" gradientUnits="userSpaceOnUse" x1="64.4558" y1="58.7052" x2="85.7063" y2="58.9378">
			<stop  offset="0" style="stop-color:#6CC2BF"/>
			<stop  offset="0.5" style="stop-color:#3DBFEF"/>
			<stop  offset="1" style="stop-color:#594E9B"/>
		</linearGradient>
		<polyline class="st1" points="75.08,58.82 75.08,58.82 75.08,58.82 75.08,58.82 		"/>
		<path class="st0" d="M96.72,59.11C96.72,59.11,96.73,59.11,96.72,59.11L96.72,59.11l7.92,0V41.79c0-6.87,3.85-10.33,9.56-10.33
			c5.13,0,8.14,2.95,8.14,9.05v18.6v0h8.01V40.6c0-11.58-5.73-17.19-15.47-17.19c-3.96,0-7.44,0.88-10.27,2.63v-2.3h-7.88
			L96.72,59.11z"/>
		<polygon class="st0" points="232.92,59.23 223.76,34.8 214.47,59.23 206.38,59.23 196.12,23.68 204.12,23.68 210.64,49.61 
			220.31,23.68 227.54,23.68 237.02,49.74 243.53,23.67 251.53,23.69 241.02,59.23 		"/>
		<path class="st0" d="M270.49,59.35c-10.85,0-18.73-7.6-18.73-18.06c0-10.43,7.88-17.99,18.73-17.99c5.31,0,10.11,1.79,13.51,5.04
			c3.41,3.26,5.28,7.85,5.28,12.95c0,5.1-1.88,9.71-5.28,12.98C280.6,57.55,275.8,59.35,270.49,59.35z M270.49,29.78
			c-6.43,0-10.91,4.74-10.91,11.52s4.49,11.52,10.91,11.52c6.47,0,10.98-4.74,10.98-11.52S276.96,29.78,270.49,29.78z"/>
		<g>
			<g>
				<polygon class="st0" points="327,47.02 336.39,38.7 336.4,38.7 341.81,33.9 341.81,23.5 326.84,36.78 326.84,10.35 
					318.83,10.35 318.83,59.04 326.84,59.04 326.84,47.17 327,47.02 				"/>
				<polygon class="st0" points="336.24,44.16 330.34,49.39 337.51,59.04 347.24,59.04 				"/>
			</g>
		</g>
		<g>
			<linearGradient id="SVGID_2_" gradientUnits="userSpaceOnUse" x1="30.4059" y1="-15.7403" x2="253.7235" y2="207.5773">
				<stop  offset="0" style="stop-color:#00FFE0"/>
				<stop  offset="0.1314" style="stop-color:#00E6EF"/>
				<stop  offset="0.2632" style="stop-color:#00D3FB"/>
				<stop  offset="0.3556" style="stop-color:#00CCFF"/>
				<stop  offset="0.5059" style="stop-color:#2B9DFF"/>
				<stop  offset="0.6564" style="stop-color:#5075FF"/>
				<stop  offset="0.794" style="stop-color:#6A58FF"/>
				<stop  offset="0.9131" style="stop-color:#7A46FF"/>
				<stop  offset="1" style="stop-color:#8040FF"/>
			</linearGradient>
			<path class="st2" d="M62.48,34.9l12.6-11.19V10.38L60.09,23.67c1.53,3.35,2.37,7.01,2.37,10.86
				C62.46,34.66,62.48,34.78,62.48,34.9z"/>
			<linearGradient id="SVGID_3_" gradientUnits="userSpaceOnUse" x1="14.3204" y1="0.3453" x2="237.6379" y2="223.6628">
				<stop  offset="0" style="stop-color:#00FFE0"/>
				<stop  offset="0.1314" style="stop-color:#00E6EF"/>
				<stop  offset="0.2632" style="stop-color:#00D3FB"/>
				<stop  offset="0.3556" style="stop-color:#00CCFF"/>
				<stop  offset="0.5059" style="stop-color:#2B9DFF"/>
				<stop  offset="0.6564" style="stop-color:#5075FF"/>
				<stop  offset="0.794" style="stop-color:#6A58FF"/>
				<stop  offset="0.9131" style="stop-color:#7A46FF"/>
				<stop  offset="1" style="stop-color:#8040FF"/>
			</linearGradient>
			<path class="st3" d="M48.46,34.01l-6.78,6.03c1.8,3.14,2.99,6.64,3.39,10.34L51.11,45c4.3,8.11,13.43,13.72,23.97,13.72l6.47,0
				c-2.17-0.56-3.79-2.49-3.79-4.99c0-2.6,1.61-4.45,3.77-4.99h-6.44c0,0,0,0,0,0c-9.16,0-16.61-6.37-16.61-14.2
				c0-13.33-11.93-24.18-26.6-24.18v9.98C40.82,20.33,48.12,26.42,48.46,34.01z"/>
			<linearGradient id="SVGID_4_" gradientUnits="userSpaceOnUse" x1="63.1643" y1="-48.4987" x2="286.4819" y2="174.8189">
				<stop  offset="0" style="stop-color:#00FFE0"/>
				<stop  offset="0.1314" style="stop-color:#00E6EF"/>
				<stop  offset="0.2632" style="stop-color:#00D3FB"/>
				<stop  offset="0.3556" style="stop-color:#00CCFF"/>
				<stop  offset="0.5059" style="stop-color:#2B9DFF"/>
				<stop  offset="0.6564" style="stop-color:#5075FF"/>
				<stop  offset="0.794" style="stop-color:#6A58FF"/>
				<stop  offset="0.9131" style="stop-color:#7A46FF"/>
				<stop  offset="1" style="stop-color:#8040FF"/>
			</linearGradient>
			<path class="st4" d="M57.83,67.37c-9.16,0-16.62-6.37-16.62-14.2c0-13.34-11.93-24.19-26.6-24.19v9.98
				c7.78,0,14.32,4.61,16.11,10.79l-3.51,3.12l-7.26,6.45l-5.34,4.74v13.35l18.16-16.13c3.68,9.35,13.52,16.07,25.05,16.07v0h303.05
				l-7.39-9.98H57.83z"/>
		</g>
	</g>
</g>
</svg>
