<svg id="Layer_1" data-name="Layer 1" xmlns="http://www.w3.org/2000/svg" xmlns:xlink="http://www.w3.org/1999/xlink" viewBox="0 0 500 500"><defs><style>.cls-1,.cls-2,.cls-3{fill:#fff;}.cls-1{clip-rule:evenodd;}.cls-3{fill-rule:evenodd;}.cls-4{clip-path:url(#clip-path);}.cls-5{clip-path:url(#clip-path-2);}</style><clipPath id="clip-path"><path class="cls-1" d="M1020.5,615.53a205.91,205.91,0,0,1-58.92,16.09,102.54,102.54,0,0,0,45.11-56.53,206.59,206.59,0,0,1-65.14,24.8,102.62,102.62,0,0,0-74.88-32.27c-56.65,0-102.58,45.74-102.58,102.18a102.28,102.28,0,0,0,2.66,23.29A291.61,291.61,0,0,1,555.31,586.31a102,102,0,0,0,31.74,136.43A102.35,102.35,0,0,1,540.59,710c0,.44,0,.85,0,1.29a102.33,102.33,0,0,0,82.3,100.19,103.59,103.59,0,0,1-46.33,1.76,102.61,102.61,0,0,0,95.82,71A206.29,206.29,0,0,1,545,927.9a212.56,212.56,0,0,1-24.47-1.42,291.24,291.24,0,0,0,157.25,45.9c188.69,0,291.86-155.71,291.86-290.73,0-4.44-.09-8.85-.3-13.23a207.58,207.58,0,0,0,51.19-52.89"/></clipPath><clipPath id="clip-path-2"><rect class="cls-2" x="-122.36" y="-51.43" width="1761.9" height="7309.52"/></clipPath></defs><path class="cls-3" d="M1020.5,615.53a205.91,205.91,0,0,1-58.92,16.09,102.54,102.54,0,0,0,45.11-56.53,206.59,206.59,0,0,1-65.14,24.8,102.62,102.62,0,0,0-74.88-32.27c-56.65,0-102.58,45.74-102.58,102.18a102.28,102.28,0,0,0,2.66,23.29A291.61,291.61,0,0,1,555.31,586.31a102,102,0,0,0,31.74,136.43A102.35,102.35,0,0,1,540.59,710c0,.44,0,.85,0,1.29a102.33,102.33,0,0,0,82.3,100.19,103.59,103.59,0,0,1-46.33,1.76,102.61,102.61,0,0,0,95.82,71A206.29,206.29,0,0,1,545,927.9a212.56,212.56,0,0,1-24.47-1.42,291.24,291.24,0,0,0,157.25,45.9c188.69,0,291.86-155.71,291.86-290.73,0-4.44-.09-8.85-.3-13.23a207.58,207.58,0,0,0,51.19-52.89"/><g class="cls-4"><rect class="cls-2" x="-122.36" y="-51.43" width="1761.9" height="7309.52"/><g class="cls-5"><rect class="cls-2" x="401.45" y="448.57" width="738.1" height="642.86"/></g></g><g id="aHloiB.tif"><path class="cls-2" d="M0,288.1V211.93c.24-1.74.6-3.47.69-5.22.9-18,1.64-36.07,2.63-54.09,2.26-40.81,30.91-69.73,71.75-70.93C133,80,190.86,78.34,248.75,78.4c60.34.07,120.69,1.7,181,3.65,30.54,1,57.19,23.45,64.08,53.27,3,13.17,3.1,27.06,4.15,40.65.93,12,1.37,24,2,36v75.2c-.32,5.17-.66,10.34-1,15.52-1.08,18.18-.87,36.55-3.52,54.5-5.26,35.63-33.53,60.32-70.14,61.21-68.13,1.65-136.29,3.14-204.43,3.24-50.41.07-100.85-1.6-151.23-3.62-31.8-1.27-59.21-26.19-64.65-57.49-2.19-12.59-2.28-25.56-3.15-38.37C1.14,310.79.63,299.44,0,288.1ZM187.89,140.92v218.2L343.73,250Z"/></g></svg>