<svg
    xmlns="http://www.w3.org/2000/svg"
    xmlns:xlink="http://www.w3.org/1999/xlink" width="26" height="29" viewBox="0 0 40 40">
    <defs>
        <path id="a" d="M.192.041h18.014v20.165H.192z"/>
    </defs>
    <circle cx="19.5" cy="18.5" r="19" fill="#fff"  stroke="grey" stroke-width="0.5"  />
    <g style="transform: translate(2px, -0.5px);" fill="none" fill-rule="evenodd">
        <path d="M23.254 10.424c.635 1.395.987 2.925.987 4.53 0 .05.008.1.01.15l5.252-4.665V4.872z" fill="#037281"/>
        <g transform="translate(11.296 4.83)">
            <mask id="b" fill="#fff">
                <use xlink:href="#a" width="100%" height="100%"/>
            </mask>
            <path d="M11.28 10.124C11.28 4.564 6.306.04.192.04v4.162c3.732 0 6.776 2.538 6.914 5.7L4.28 12.415a11.024 11.024 0 011.411 4.313l2.522-2.241c1.792 3.38 5.6 5.719 9.994 5.719v-4.161c-3.819 0-6.926-2.656-6.926-5.921" mask="url(#b)" fill="#037281"/>
        </g>
        <path d="M22.312 32.801V28.64c-3.82 0-6.927-2.656-6.927-5.92 0-5.56-4.974-10.083-11.088-10.083v4.161c3.245 0 5.969 1.92 6.717 4.5l-1.462 1.298-3.028 2.69-2.227 1.978v5.566l7.572-6.725c1.533 3.898 5.634 6.696 10.443 6.696" fill="#037281"/>
    </g>
</svg>
